<svg width="500" height="500" viewBox="0 0 500 500" fill="none" xmlns="http://www.w3.org/2000/svg">
<rect width="500" height="500" fill="#1E1E1E"/>
<rect width="500" height="500" fill="white"/>
<mask id="path-1-outside-1_0_1" maskUnits="userSpaceOnUse" x="177" y="225" width="282" height="42" fill="black">
<rect fill="white" x="177" y="225" width="282" height="42"/>
<path d="M197.98 265L189.18 249.71H184.395V265H178.125V226.775H191.325C194.258 226.775 196.733 227.288 198.75 228.315C200.803 229.342 202.325 230.717 203.315 232.44C204.342 234.163 204.855 236.088 204.855 238.215C204.855 240.708 204.122 242.982 202.655 245.035C201.225 247.052 199.007 248.427 196 249.16L205.46 265H197.98ZM184.395 244.705H191.325C193.672 244.705 195.432 244.118 196.605 242.945C197.815 241.772 198.42 240.195 198.42 238.215C198.42 236.235 197.833 234.695 196.66 233.595C195.487 232.458 193.708 231.89 191.325 231.89H184.395V244.705ZM240.651 249.105C240.651 250.242 240.578 251.268 240.431 252.185H217.276C217.459 254.605 218.358 256.548 219.971 258.015C221.584 259.482 223.564 260.215 225.911 260.215C229.284 260.215 231.668 258.803 233.061 255.98H239.826C238.909 258.767 237.241 261.058 234.821 262.855C232.438 264.615 229.468 265.495 225.911 265.495C223.014 265.495 220.411 264.853 218.101 263.57C215.828 262.25 214.031 260.417 212.711 258.07C211.428 255.687 210.786 252.937 210.786 249.82C210.786 246.703 211.409 243.972 212.656 241.625C213.939 239.242 215.718 237.408 217.991 236.125C220.301 234.842 222.941 234.2 225.911 234.2C228.771 234.2 231.319 234.823 233.556 236.07C235.793 237.317 237.534 239.077 238.781 241.35C240.028 243.587 240.651 246.172 240.651 249.105ZM234.106 247.125C234.069 244.815 233.244 242.963 231.631 241.57C230.018 240.177 228.019 239.48 225.636 239.48C223.473 239.48 221.621 240.177 220.081 241.57C218.541 242.927 217.624 244.778 217.331 247.125H234.106ZM262.111 234.2C264.495 234.2 266.621 234.695 268.491 235.685C270.398 236.675 271.883 238.142 272.946 240.085C274.01 242.028 274.541 244.375 274.541 247.125V265H268.326V248.06C268.326 245.347 267.648 243.275 266.291 241.845C264.935 240.378 263.083 239.645 260.736 239.645C258.39 239.645 256.52 240.378 255.126 241.845C253.77 243.275 253.091 245.347 253.091 248.06V265H246.821V234.695H253.091V238.16C254.118 236.913 255.42 235.942 256.996 235.245C258.61 234.548 260.315 234.2 262.111 234.2ZM289.854 239.81V256.585C289.854 257.722 290.111 258.547 290.624 259.06C291.174 259.537 292.091 259.775 293.374 259.775H297.224V265H292.274C289.451 265 287.287 264.34 285.784 263.02C284.281 261.7 283.529 259.555 283.529 256.585V239.81H279.954V234.695H283.529V227.16H289.854V234.695H297.224V239.81H289.854ZM322.858 265L314.058 249.71H309.273V265H303.003V226.775H316.203C319.136 226.775 321.611 227.288 323.628 228.315C325.681 229.342 327.203 230.717 328.193 232.44C329.22 234.163 329.733 236.088 329.733 238.215C329.733 240.708 329 242.982 327.533 245.035C326.103 247.052 323.885 248.427 320.878 249.16L330.338 265H322.858ZM309.273 244.705H316.203C318.55 244.705 320.31 244.118 321.483 242.945C322.693 241.772 323.298 240.195 323.298 238.215C323.298 236.235 322.711 234.695 321.538 233.595C320.365 232.458 318.586 231.89 316.203 231.89H309.273V244.705ZM350.899 265.495C348.039 265.495 345.454 264.853 343.144 263.57C340.834 262.25 339.019 260.417 337.699 258.07C336.379 255.687 335.719 252.937 335.719 249.82C335.719 246.74 336.397 244.008 337.754 241.625C339.111 239.242 340.962 237.408 343.309 236.125C345.656 234.842 348.277 234.2 351.174 234.2C354.071 234.2 356.692 234.842 359.039 236.125C361.386 237.408 363.237 239.242 364.594 241.625C365.951 244.008 366.629 246.74 366.629 249.82C366.629 252.9 365.932 255.632 364.539 258.015C363.146 260.398 361.239 262.25 358.819 263.57C356.436 264.853 353.796 265.495 350.899 265.495ZM350.899 260.05C352.512 260.05 354.016 259.665 355.409 258.895C356.839 258.125 357.994 256.97 358.874 255.43C359.754 253.89 360.194 252.02 360.194 249.82C360.194 247.62 359.772 245.768 358.929 244.265C358.086 242.725 356.967 241.57 355.574 240.8C354.181 240.03 352.677 239.645 351.064 239.645C349.451 239.645 347.947 240.03 346.554 240.8C345.197 241.57 344.116 242.725 343.309 244.265C342.502 245.768 342.099 247.62 342.099 249.82C342.099 253.083 342.924 255.613 344.574 257.41C346.261 259.17 348.369 260.05 350.899 260.05ZM385.972 265.495C383.112 265.495 380.527 264.853 378.217 263.57C375.907 262.25 374.092 260.417 372.772 258.07C371.452 255.687 370.792 252.937 370.792 249.82C370.792 246.74 371.47 244.008 372.827 241.625C374.184 239.242 376.035 237.408 378.382 236.125C380.729 234.842 383.35 234.2 386.247 234.2C389.144 234.2 391.765 234.842 394.112 236.125C396.459 237.408 398.31 239.242 399.667 241.625C401.024 244.008 401.702 246.74 401.702 249.82C401.702 252.9 401.005 255.632 399.612 258.015C398.219 260.398 396.312 262.25 393.892 263.57C391.509 264.853 388.869 265.495 385.972 265.495ZM385.972 260.05C387.585 260.05 389.089 259.665 390.482 258.895C391.912 258.125 393.067 256.97 393.947 255.43C394.827 253.89 395.267 252.02 395.267 249.82C395.267 247.62 394.845 245.768 394.002 244.265C393.159 242.725 392.04 241.57 390.647 240.8C389.254 240.03 387.75 239.645 386.137 239.645C384.524 239.645 383.02 240.03 381.627 240.8C380.27 241.57 379.189 242.725 378.382 244.265C377.575 245.768 377.172 247.62 377.172 249.82C377.172 253.083 377.997 255.613 379.647 257.41C381.334 259.17 383.442 260.05 385.972 260.05ZM444.585 234.2C446.969 234.2 449.095 234.695 450.965 235.685C452.872 236.675 454.357 238.142 455.42 240.085C456.52 242.028 457.07 244.375 457.07 247.125V265H450.855V248.06C450.855 245.347 450.177 243.275 448.82 241.845C447.464 240.378 445.612 239.645 443.265 239.645C440.919 239.645 439.049 240.378 437.655 241.845C436.299 243.275 435.62 245.347 435.62 248.06V265H429.405V248.06C429.405 245.347 428.727 243.275 427.37 241.845C426.014 240.378 424.162 239.645 421.815 239.645C419.469 239.645 417.599 240.378 416.205 241.845C414.849 243.275 414.17 245.347 414.17 248.06V265H407.9V234.695H414.17V238.16C415.197 236.913 416.499 235.942 418.075 235.245C419.652 234.548 421.339 234.2 423.135 234.2C425.555 234.2 427.719 234.713 429.625 235.74C431.532 236.767 432.999 238.252 434.025 240.195C434.942 238.362 436.372 236.913 438.315 235.85C440.259 234.75 442.349 234.2 444.585 234.2Z"/>
</mask>
<path d="M197.98 265L189.18 249.71H184.395V265H178.125V226.775H191.325C194.258 226.775 196.733 227.288 198.75 228.315C200.803 229.342 202.325 230.717 203.315 232.44C204.342 234.163 204.855 236.088 204.855 238.215C204.855 240.708 204.122 242.982 202.655 245.035C201.225 247.052 199.007 248.427 196 249.16L205.46 265H197.98ZM184.395 244.705H191.325C193.672 244.705 195.432 244.118 196.605 242.945C197.815 241.772 198.42 240.195 198.42 238.215C198.42 236.235 197.833 234.695 196.66 233.595C195.487 232.458 193.708 231.89 191.325 231.89H184.395V244.705ZM240.651 249.105C240.651 250.242 240.578 251.268 240.431 252.185H217.276C217.459 254.605 218.358 256.548 219.971 258.015C221.584 259.482 223.564 260.215 225.911 260.215C229.284 260.215 231.668 258.803 233.061 255.98H239.826C238.909 258.767 237.241 261.058 234.821 262.855C232.438 264.615 229.468 265.495 225.911 265.495C223.014 265.495 220.411 264.853 218.101 263.57C215.828 262.25 214.031 260.417 212.711 258.07C211.428 255.687 210.786 252.937 210.786 249.82C210.786 246.703 211.409 243.972 212.656 241.625C213.939 239.242 215.718 237.408 217.991 236.125C220.301 234.842 222.941 234.2 225.911 234.2C228.771 234.2 231.319 234.823 233.556 236.07C235.793 237.317 237.534 239.077 238.781 241.35C240.028 243.587 240.651 246.172 240.651 249.105ZM234.106 247.125C234.069 244.815 233.244 242.963 231.631 241.57C230.018 240.177 228.019 239.48 225.636 239.48C223.473 239.48 221.621 240.177 220.081 241.57C218.541 242.927 217.624 244.778 217.331 247.125H234.106ZM262.111 234.2C264.495 234.2 266.621 234.695 268.491 235.685C270.398 236.675 271.883 238.142 272.946 240.085C274.01 242.028 274.541 244.375 274.541 247.125V265H268.326V248.06C268.326 245.347 267.648 243.275 266.291 241.845C264.935 240.378 263.083 239.645 260.736 239.645C258.39 239.645 256.52 240.378 255.126 241.845C253.77 243.275 253.091 245.347 253.091 248.06V265H246.821V234.695H253.091V238.16C254.118 236.913 255.42 235.942 256.996 235.245C258.61 234.548 260.315 234.2 262.111 234.2ZM289.854 239.81V256.585C289.854 257.722 290.111 258.547 290.624 259.06C291.174 259.537 292.091 259.775 293.374 259.775H297.224V265H292.274C289.451 265 287.287 264.34 285.784 263.02C284.281 261.7 283.529 259.555 283.529 256.585V239.81H279.954V234.695H283.529V227.16H289.854V234.695H297.224V239.81H289.854ZM322.858 265L314.058 249.71H309.273V265H303.003V226.775H316.203C319.136 226.775 321.611 227.288 323.628 228.315C325.681 229.342 327.203 230.717 328.193 232.44C329.22 234.163 329.733 236.088 329.733 238.215C329.733 240.708 329 242.982 327.533 245.035C326.103 247.052 323.885 248.427 320.878 249.16L330.338 265H322.858ZM309.273 244.705H316.203C318.55 244.705 320.31 244.118 321.483 242.945C322.693 241.772 323.298 240.195 323.298 238.215C323.298 236.235 322.711 234.695 321.538 233.595C320.365 232.458 318.586 231.89 316.203 231.89H309.273V244.705ZM350.899 265.495C348.039 265.495 345.454 264.853 343.144 263.57C340.834 262.25 339.019 260.417 337.699 258.07C336.379 255.687 335.719 252.937 335.719 249.82C335.719 246.74 336.397 244.008 337.754 241.625C339.111 239.242 340.962 237.408 343.309 236.125C345.656 234.842 348.277 234.2 351.174 234.2C354.071 234.2 356.692 234.842 359.039 236.125C361.386 237.408 363.237 239.242 364.594 241.625C365.951 244.008 366.629 246.74 366.629 249.82C366.629 252.9 365.932 255.632 364.539 258.015C363.146 260.398 361.239 262.25 358.819 263.57C356.436 264.853 353.796 265.495 350.899 265.495ZM350.899 260.05C352.512 260.05 354.016 259.665 355.409 258.895C356.839 258.125 357.994 256.97 358.874 255.43C359.754 253.89 360.194 252.02 360.194 249.82C360.194 247.62 359.772 245.768 358.929 244.265C358.086 242.725 356.967 241.57 355.574 240.8C354.181 240.03 352.677 239.645 351.064 239.645C349.451 239.645 347.947 240.03 346.554 240.8C345.197 241.57 344.116 242.725 343.309 244.265C342.502 245.768 342.099 247.62 342.099 249.82C342.099 253.083 342.924 255.613 344.574 257.41C346.261 259.17 348.369 260.05 350.899 260.05ZM385.972 265.495C383.112 265.495 380.527 264.853 378.217 263.57C375.907 262.25 374.092 260.417 372.772 258.07C371.452 255.687 370.792 252.937 370.792 249.82C370.792 246.74 371.47 244.008 372.827 241.625C374.184 239.242 376.035 237.408 378.382 236.125C380.729 234.842 383.35 234.2 386.247 234.2C389.144 234.2 391.765 234.842 394.112 236.125C396.459 237.408 398.31 239.242 399.667 241.625C401.024 244.008 401.702 246.74 401.702 249.82C401.702 252.9 401.005 255.632 399.612 258.015C398.219 260.398 396.312 262.25 393.892 263.57C391.509 264.853 388.869 265.495 385.972 265.495ZM385.972 260.05C387.585 260.05 389.089 259.665 390.482 258.895C391.912 258.125 393.067 256.97 393.947 255.43C394.827 253.89 395.267 252.02 395.267 249.82C395.267 247.62 394.845 245.768 394.002 244.265C393.159 242.725 392.04 241.57 390.647 240.8C389.254 240.03 387.75 239.645 386.137 239.645C384.524 239.645 383.02 240.03 381.627 240.8C380.27 241.57 379.189 242.725 378.382 244.265C377.575 245.768 377.172 247.62 377.172 249.82C377.172 253.083 377.997 255.613 379.647 257.41C381.334 259.17 383.442 260.05 385.972 260.05ZM444.585 234.2C446.969 234.2 449.095 234.695 450.965 235.685C452.872 236.675 454.357 238.142 455.42 240.085C456.52 242.028 457.07 244.375 457.07 247.125V265H450.855V248.06C450.855 245.347 450.177 243.275 448.82 241.845C447.464 240.378 445.612 239.645 443.265 239.645C440.919 239.645 439.049 240.378 437.655 241.845C436.299 243.275 435.62 245.347 435.62 248.06V265H429.405V248.06C429.405 245.347 428.727 243.275 427.37 241.845C426.014 240.378 424.162 239.645 421.815 239.645C419.469 239.645 417.599 240.378 416.205 241.845C414.849 243.275 414.17 245.347 414.17 248.06V265H407.9V234.695H414.17V238.16C415.197 236.913 416.499 235.942 418.075 235.245C419.652 234.548 421.339 234.2 423.135 234.2C425.555 234.2 427.719 234.713 429.625 235.74C431.532 236.767 432.999 238.252 434.025 240.195C434.942 238.362 436.372 236.913 438.315 235.85C440.259 234.75 442.349 234.2 444.585 234.2Z" fill="#9F57AB"/>
<path d="M197.98 265L197.113 265.499L197.402 266H197.98V265ZM189.18 249.71L190.047 249.211L189.758 248.71H189.18V249.71ZM184.395 249.71V248.71H183.395V249.71H184.395ZM184.395 265V266H185.395V265H184.395ZM178.125 265H177.125V266H178.125V265ZM178.125 226.775V225.775H177.125V226.775H178.125ZM198.75 228.315L198.296 229.206L198.303 229.209L198.75 228.315ZM203.315 232.44L202.448 232.938L202.452 232.945L202.456 232.952L203.315 232.44ZM202.655 245.035L201.841 244.454L201.839 244.457L202.655 245.035ZM196 249.16L195.763 248.188L194.447 248.51L195.141 249.673L196 249.16ZM205.46 265V266H207.222L206.319 264.487L205.46 265ZM184.395 244.705H183.395V245.705H184.395V244.705ZM196.605 242.945L195.909 242.227L195.903 242.232L195.898 242.238L196.605 242.945ZM196.66 233.595L195.964 234.313L195.97 234.319L195.976 234.325L196.66 233.595ZM184.395 231.89V230.89H183.395V231.89H184.395ZM198.847 264.501L190.047 249.211L188.313 250.209L197.113 265.499L198.847 264.501ZM189.18 248.71H184.395V250.71H189.18V248.71ZM183.395 249.71V265H185.395V249.71H183.395ZM184.395 264H178.125V266H184.395V264ZM179.125 265V226.775H177.125V265H179.125ZM178.125 227.775H191.325V225.775H178.125V227.775ZM191.325 227.775C194.146 227.775 196.456 228.269 198.296 229.206L199.204 227.424C197.011 226.308 194.371 225.775 191.325 225.775V227.775ZM198.303 229.209C200.208 230.162 201.57 231.411 202.448 232.938L204.182 231.942C203.08 230.023 201.398 228.521 199.197 227.421L198.303 229.209ZM202.456 232.952C203.385 234.511 203.855 236.257 203.855 238.215H205.855C205.855 235.919 205.299 233.816 204.174 231.928L202.456 232.952ZM203.855 238.215C203.855 240.497 203.188 242.568 201.841 244.454L203.469 245.616C205.055 243.395 205.855 240.919 205.855 238.215H203.855ZM201.839 244.457C200.581 246.231 198.597 247.497 195.763 248.188L196.237 250.132C199.417 249.356 201.869 247.872 203.471 245.613L201.839 244.457ZM195.141 249.673L204.601 265.513L206.319 264.487L196.859 248.647L195.141 249.673ZM205.46 264H197.98V266H205.46V264ZM184.395 245.705H191.325V243.705H184.395V245.705ZM191.325 245.705C193.826 245.705 195.885 245.079 197.312 243.652L195.898 242.238C194.978 243.158 193.518 243.705 191.325 243.705V245.705ZM197.301 243.663C198.739 242.268 199.42 240.414 199.42 238.215H197.42C197.42 239.976 196.891 241.275 195.909 242.227L197.301 243.663ZM199.42 238.215C199.42 236.027 198.764 234.197 197.344 232.865L195.976 234.325C196.903 235.193 197.42 236.443 197.42 238.215H199.42ZM197.356 232.877C195.925 231.491 193.85 230.89 191.325 230.89V232.89C193.567 232.89 195.048 233.426 195.964 234.313L197.356 232.877ZM191.325 230.89H184.395V232.89H191.325V230.89ZM183.395 231.89V244.705H185.395V231.89H183.395ZM240.431 252.185V253.185H241.284L241.418 252.343L240.431 252.185ZM217.276 252.185V251.185H216.197L216.279 252.261L217.276 252.185ZM219.971 258.015L219.298 258.755L219.298 258.755L219.971 258.015ZM233.061 255.98V254.98H232.439L232.164 255.537L233.061 255.98ZM239.826 255.98L240.776 256.292L241.208 254.98H239.826V255.98ZM234.821 262.855L235.415 263.659L235.417 263.658L234.821 262.855ZM218.101 263.57L217.599 264.435L217.607 264.44L217.615 264.444L218.101 263.57ZM212.711 258.07L211.831 258.544L211.835 258.552L211.839 258.56L212.711 258.07ZM212.656 241.625L211.775 241.151L211.773 241.156L212.656 241.625ZM217.991 236.125L217.505 235.251L217.499 235.254L217.991 236.125ZM233.556 236.07L234.043 235.197L234.043 235.197L233.556 236.07ZM238.781 241.35L237.904 241.831L237.907 241.837L238.781 241.35ZM234.106 247.125V248.125H235.122L235.106 247.109L234.106 247.125ZM231.631 241.57L232.285 240.813L232.285 240.813L231.631 241.57ZM220.081 241.57L220.742 242.32L220.752 242.312L220.081 241.57ZM217.331 247.125L216.339 247.001L216.198 248.125H217.331V247.125ZM239.651 249.105C239.651 250.2 239.58 251.173 239.444 252.027L241.418 252.343C241.575 251.364 241.651 250.283 241.651 249.105H239.651ZM240.431 251.185H217.276V253.185H240.431V251.185ZM216.279 252.261C216.479 254.904 217.474 257.096 219.298 258.755L220.644 257.275C219.241 256 218.44 254.306 218.273 252.109L216.279 252.261ZM219.298 258.755C221.11 260.402 223.336 261.215 225.911 261.215V259.215C223.792 259.215 222.058 258.561 220.644 257.275L219.298 258.755ZM225.911 261.215C227.738 261.215 229.362 260.832 230.738 260.017C232.119 259.199 233.187 257.984 233.958 256.423L232.164 255.537C231.541 256.8 230.722 257.702 229.719 258.296C228.712 258.892 227.457 259.215 225.911 259.215V261.215ZM233.061 256.98H239.826V254.98H233.061V256.98ZM238.876 255.668C238.026 258.252 236.484 260.375 234.225 262.052L235.417 263.658C237.998 261.742 239.793 259.281 240.776 256.292L238.876 255.668ZM234.227 262.051C232.048 263.66 229.298 264.495 225.911 264.495V266.495C229.637 266.495 232.827 265.57 235.415 263.659L234.227 262.051ZM225.911 264.495C223.168 264.495 220.734 263.889 218.587 262.696L217.615 264.444C220.088 265.818 222.861 266.495 225.911 266.495V264.495ZM218.603 262.705C216.488 261.477 214.817 259.775 213.583 257.58L211.839 258.56C213.245 261.059 215.167 263.023 217.599 264.435L218.603 262.705ZM213.591 257.596C212.398 255.379 211.786 252.796 211.786 249.82H209.786C209.786 253.077 210.458 255.994 211.831 258.544L213.591 257.596ZM211.786 249.82C211.786 246.839 212.381 244.273 213.539 242.094L211.773 241.156C210.437 243.67 209.786 246.568 209.786 249.82H211.786ZM213.536 242.099C214.734 239.876 216.38 238.183 218.483 236.996L217.499 235.254C215.055 236.634 213.145 238.608 211.776 241.151L213.536 242.099ZM218.477 236.999C220.62 235.808 223.089 235.2 225.911 235.2V233.2C222.792 233.2 219.982 233.875 217.505 235.251L218.477 236.999ZM225.911 235.2C228.621 235.2 230.998 235.789 233.069 236.943L234.043 235.197C231.641 233.858 228.921 233.2 225.911 233.2V235.2ZM233.069 236.943C235.139 238.097 236.747 239.72 237.904 241.831L239.658 240.869C238.322 238.433 236.446 236.536 234.043 235.197L233.069 236.943ZM237.907 241.837C239.06 243.904 239.651 246.317 239.651 249.105H241.651C241.651 246.026 240.996 243.269 239.654 240.863L237.907 241.837ZM235.106 247.109C235.065 244.541 234.133 242.41 232.285 240.813L230.977 242.327C232.355 243.517 233.074 245.089 233.106 247.141L235.106 247.109ZM232.285 240.813C230.468 239.244 228.229 238.48 225.636 238.48V240.48C227.81 240.48 229.567 241.109 230.977 242.327L232.285 240.813ZM225.636 238.48C223.236 238.48 221.142 239.261 219.41 240.828L220.752 242.312C222.1 241.092 223.709 240.48 225.636 240.48V238.48ZM219.42 240.82C217.669 242.362 216.657 244.451 216.339 247.001L218.323 247.249C218.591 245.105 219.413 243.491 220.742 242.32L219.42 240.82ZM217.331 248.125H234.106V246.125H217.331V248.125ZM268.491 235.685L268.023 236.569L268.03 236.572L268.491 235.685ZM272.946 240.085L272.069 240.565L272.069 240.565L272.946 240.085ZM274.541 265V266H275.541V265H274.541ZM268.326 265H267.326V266H268.326V265ZM266.291 241.845L265.557 242.524L265.566 242.533L266.291 241.845ZM255.126 241.845L254.401 241.156L254.401 241.157L255.126 241.845ZM253.091 265V266H254.091V265H253.091ZM246.821 265H245.821V266H246.821V265ZM246.821 234.695V233.695H245.821V234.695H246.821ZM253.091 234.695H254.091V233.695H253.091V234.695ZM253.091 238.16H252.091V240.947L253.863 238.796L253.091 238.16ZM256.996 235.245L256.6 234.327L256.592 234.33L256.996 235.245ZM262.111 235.2C264.352 235.2 266.315 235.664 268.023 236.569L268.959 234.801C266.928 233.726 264.637 233.2 262.111 233.2V235.2ZM268.03 236.572C269.755 237.468 271.098 238.79 272.069 240.565L273.824 239.605C272.668 237.493 271.041 235.882 268.952 234.798L268.03 236.572ZM272.069 240.565C273.035 242.33 273.541 244.503 273.541 247.125H275.541C275.541 244.247 274.985 241.727 273.824 239.605L272.069 240.565ZM273.541 247.125V265H275.541V247.125H273.541ZM274.541 264H268.326V266H274.541V264ZM269.326 265V248.06H267.326V265H269.326ZM269.326 248.06C269.326 245.188 268.607 242.833 267.017 241.157L265.566 242.533C266.689 243.717 267.326 245.505 267.326 248.06H269.326ZM267.025 241.166C265.446 239.459 263.309 238.645 260.736 238.645V240.645C262.857 240.645 264.423 241.298 265.557 242.524L267.025 241.166ZM260.736 238.645C258.163 238.645 256.014 239.459 254.401 241.156L255.851 242.534C257.025 241.298 258.616 240.645 260.736 240.645V238.645ZM254.401 241.157C252.811 242.833 252.091 245.188 252.091 248.06H254.091C254.091 245.505 254.729 243.717 255.852 242.533L254.401 241.157ZM252.091 248.06V265H254.091V248.06H252.091ZM253.091 264H246.821V266H253.091V264ZM247.821 265V234.695H245.821V265H247.821ZM246.821 235.695H253.091V233.695H246.821V235.695ZM252.091 234.695V238.16H254.091V234.695H252.091ZM253.863 238.796C254.784 237.677 255.957 236.798 257.4 236.16L256.592 234.33C254.883 235.086 253.452 236.149 252.319 237.524L253.863 238.796ZM257.393 236.163C258.878 235.522 260.448 235.2 262.111 235.2V233.2C260.181 233.2 258.341 233.575 256.6 234.327L257.393 236.163ZM289.854 239.81V238.81H288.854V239.81H289.854ZM290.624 259.06L289.917 259.767L289.942 259.792L289.969 259.816L290.624 259.06ZM297.224 259.775H298.224V258.775H297.224V259.775ZM297.224 265V266H298.224V265H297.224ZM285.784 263.02L285.124 263.771L285.124 263.771L285.784 263.02ZM283.529 239.81H284.529V238.81H283.529V239.81ZM279.954 239.81H278.954V240.81H279.954V239.81ZM279.954 234.695V233.695H278.954V234.695H279.954ZM283.529 234.695V235.695H284.529V234.695H283.529ZM283.529 227.16V226.16H282.529V227.16H283.529ZM289.854 227.16H290.854V226.16H289.854V227.16ZM289.854 234.695H288.854V235.695H289.854V234.695ZM297.224 234.695H298.224V233.695H297.224V234.695ZM297.224 239.81V240.81H298.224V239.81H297.224ZM288.854 239.81V256.585H290.854V239.81H288.854ZM288.854 256.585C288.854 257.841 289.133 258.984 289.917 259.767L291.331 258.353C291.088 258.11 290.854 257.602 290.854 256.585H288.854ZM289.969 259.816C290.796 260.532 292.016 260.775 293.374 260.775V258.775C292.165 258.775 291.552 258.541 291.279 258.304L289.969 259.816ZM293.374 260.775H297.224V258.775H293.374V260.775ZM296.224 259.775V265H298.224V259.775H296.224ZM297.224 264H292.274V266H297.224V264ZM292.274 264C289.594 264 287.702 263.373 286.444 262.269L285.124 263.771C286.873 265.307 289.307 266 292.274 266V264ZM286.444 262.269C285.244 261.215 284.529 259.408 284.529 256.585H282.529C282.529 259.702 283.317 262.185 285.124 263.771L286.444 262.269ZM284.529 256.585V239.81H282.529V256.585H284.529ZM283.529 238.81H279.954V240.81H283.529V238.81ZM280.954 239.81V234.695H278.954V239.81H280.954ZM279.954 235.695H283.529V233.695H279.954V235.695ZM284.529 234.695V227.16H282.529V234.695H284.529ZM283.529 228.16H289.854V226.16H283.529V228.16ZM288.854 227.16V234.695H290.854V227.16H288.854ZM289.854 235.695H297.224V233.695H289.854V235.695ZM296.224 234.695V239.81H298.224V234.695H296.224ZM297.224 238.81H289.854V240.81H297.224V238.81ZM322.858 265L321.991 265.499L322.28 266H322.858V265ZM314.058 249.71L314.925 249.211L314.636 248.71H314.058V249.71ZM309.273 249.71V248.71H308.273V249.71H309.273ZM309.273 265V266H310.273V265H309.273ZM303.003 265H302.003V266H303.003V265ZM303.003 226.775V225.775H302.003V226.775H303.003ZM323.628 228.315L323.174 229.206L323.181 229.209L323.628 228.315ZM328.193 232.44L327.326 232.938L327.33 232.945L327.334 232.952L328.193 232.44ZM327.533 245.035L326.719 244.454L326.717 244.457L327.533 245.035ZM320.878 249.16L320.641 248.188L319.325 248.51L320.019 249.673L320.878 249.16ZM330.338 265V266H332.1L331.196 264.487L330.338 265ZM309.273 244.705H308.273V245.705H309.273V244.705ZM321.483 242.945L320.787 242.227L320.781 242.232L320.776 242.238L321.483 242.945ZM321.538 233.595L320.842 234.313L320.848 234.319L320.854 234.325L321.538 233.595ZM309.273 231.89V230.89H308.273V231.89H309.273ZM323.725 264.501L314.925 249.211L313.191 250.209L321.991 265.499L323.725 264.501ZM314.058 248.71H309.273V250.71H314.058V248.71ZM308.273 249.71V265H310.273V249.71H308.273ZM309.273 264H303.003V266H309.273V264ZM304.003 265V226.775H302.003V265H304.003ZM303.003 227.775H316.203V225.775H303.003V227.775ZM316.203 227.775C319.024 227.775 321.333 228.269 323.174 229.206L324.082 227.424C321.889 226.308 319.249 225.775 316.203 225.775V227.775ZM323.181 229.209C325.086 230.162 326.448 231.411 327.326 232.938L329.06 231.942C327.958 230.023 326.276 228.521 324.075 227.421L323.181 229.209ZM327.334 232.952C328.263 234.511 328.733 236.257 328.733 238.215H330.733C330.733 235.919 330.177 233.816 329.052 231.928L327.334 232.952ZM328.733 238.215C328.733 240.497 328.066 242.568 326.719 244.454L328.347 245.616C329.933 243.395 330.733 240.919 330.733 238.215H328.733ZM326.717 244.457C325.459 246.231 323.475 247.497 320.641 248.188L321.115 250.132C324.295 249.356 326.747 247.872 328.349 245.613L326.717 244.457ZM320.019 249.673L329.479 265.513L331.196 264.487L321.736 248.647L320.019 249.673ZM330.338 264H322.858V266H330.338V264ZM309.273 245.705H316.203V243.705H309.273V245.705ZM316.203 245.705C318.704 245.705 320.763 245.079 322.19 243.652L320.776 242.238C319.856 243.158 318.395 243.705 316.203 243.705V245.705ZM322.179 243.663C323.617 242.268 324.298 240.414 324.298 238.215H322.298C322.298 239.976 321.769 241.275 320.787 242.227L322.179 243.663ZM324.298 238.215C324.298 236.027 323.642 234.197 322.222 232.865L320.854 234.325C321.781 235.193 322.298 236.443 322.298 238.215H324.298ZM322.234 232.877C320.803 231.491 318.727 230.89 316.203 230.89V232.89C318.445 232.89 319.926 233.426 320.842 234.313L322.234 232.877ZM316.203 230.89H309.273V232.89H316.203V230.89ZM308.273 231.89V244.705H310.273V231.89H308.273ZM343.144 263.57L342.648 264.438L342.658 264.444L343.144 263.57ZM337.699 258.07L336.824 258.555L336.827 258.56L337.699 258.07ZM343.309 236.125L342.829 235.248L342.829 235.248L343.309 236.125ZM359.039 236.125L359.519 235.248L359.519 235.248L359.039 236.125ZM364.539 258.015L363.676 257.51L364.539 258.015ZM358.819 263.57L359.293 264.45L359.298 264.448L358.819 263.57ZM355.409 258.895L354.935 258.014L354.925 258.02L355.409 258.895ZM358.874 255.43L358.006 254.934L358.006 254.934L358.874 255.43ZM358.929 244.265L358.052 244.745L358.057 244.754L358.929 244.265ZM346.554 240.8L346.07 239.925L346.06 239.93L346.554 240.8ZM343.309 244.265L344.19 244.738L344.195 244.729L343.309 244.265ZM344.574 257.41L343.837 258.086L343.845 258.094L343.852 258.102L344.574 257.41ZM350.899 264.495C348.194 264.495 345.779 263.89 343.63 262.696L342.658 264.444C345.129 265.817 347.883 266.495 350.899 266.495V264.495ZM343.64 262.702C341.489 261.473 339.803 259.771 338.57 257.58L336.827 258.56C338.235 261.063 340.179 263.027 342.648 264.438L343.64 262.702ZM338.574 257.586C337.347 255.371 336.719 252.792 336.719 249.82H334.719C334.719 253.081 335.411 256.003 336.824 258.554L338.574 257.586ZM336.719 249.82C336.719 246.892 337.362 244.334 338.623 242.12L336.885 241.13C335.432 243.682 334.719 246.588 334.719 249.82H336.719ZM338.623 242.12C339.89 239.893 341.609 238.194 343.789 237.002L342.829 235.248C340.315 236.622 338.331 238.59 336.885 241.13L338.623 242.12ZM343.789 237.002C345.976 235.806 348.431 235.2 351.174 235.2V233.2C348.124 233.2 345.335 233.877 342.829 235.248L343.789 237.002ZM351.174 235.2C353.917 235.2 356.372 235.806 358.559 237.002L359.519 235.248C357.013 233.877 354.224 233.2 351.174 233.2V235.2ZM358.559 237.002C360.739 238.194 362.457 239.893 363.725 242.12L365.463 241.13C364.017 238.59 362.032 236.622 359.519 235.248L358.559 237.002ZM363.725 242.12C364.986 244.334 365.629 246.892 365.629 249.82H367.629C367.629 246.588 366.916 243.682 365.463 241.13L363.725 242.12ZM365.629 249.82C365.629 252.744 364.969 255.297 363.676 257.51L365.402 258.52C366.895 255.966 367.629 253.056 367.629 249.82H365.629ZM363.676 257.51C362.374 259.737 360.6 261.459 358.34 262.692L359.298 264.448C361.878 263.041 363.917 261.06 365.402 258.52L363.676 257.51ZM358.345 262.69C356.117 263.889 353.642 264.495 350.899 264.495V266.495C353.949 266.495 356.754 265.818 359.293 264.45L358.345 262.69ZM350.899 261.05C352.679 261.05 354.349 260.623 355.893 259.77L354.925 258.02C353.682 258.707 352.345 259.05 350.899 259.05V261.05ZM355.883 259.775C357.493 258.909 358.778 257.613 359.742 255.926L358.006 254.934C357.21 256.327 356.185 257.341 354.935 258.015L355.883 259.775ZM359.742 255.926C360.727 254.203 361.194 252.153 361.194 249.82H359.194C359.194 251.887 358.781 253.577 358.006 254.934L359.742 255.926ZM361.194 249.82C361.194 247.495 360.748 245.464 359.801 243.776L358.057 244.754C358.796 246.072 359.194 247.745 359.194 249.82H361.194ZM359.806 243.785C358.881 242.096 357.634 240.796 356.058 239.925L355.09 241.675C356.301 242.344 357.29 243.354 358.052 244.745L359.806 243.785ZM356.058 239.925C354.514 239.072 352.844 238.645 351.064 238.645V240.645C352.51 240.645 353.847 240.988 355.09 241.675L356.058 239.925ZM351.064 238.645C349.284 238.645 347.614 239.072 346.07 239.925L347.038 241.675C348.281 240.988 349.617 240.645 351.064 240.645V238.645ZM346.06 239.93C344.518 240.806 343.308 242.111 342.423 243.801L344.195 244.729C344.923 243.339 345.877 242.334 347.048 241.67L346.06 239.93ZM342.428 243.792C341.524 245.477 341.099 247.501 341.099 249.82H343.099C343.099 247.739 343.481 246.06 344.19 244.738L342.428 243.792ZM341.099 249.82C341.099 253.248 341.967 256.05 343.837 258.086L345.31 256.734C343.88 255.176 343.099 252.919 343.099 249.82H341.099ZM343.852 258.102C345.735 260.067 348.108 261.05 350.899 261.05V259.05C348.63 259.05 346.786 258.273 345.296 256.718L343.852 258.102ZM378.217 263.57L377.721 264.438L377.732 264.444L378.217 263.57ZM372.772 258.07L371.897 258.555L371.901 258.56L372.772 258.07ZM378.382 236.125L377.902 235.248L377.902 235.248L378.382 236.125ZM394.112 236.125L394.592 235.248L394.592 235.248L394.112 236.125ZM399.612 258.015L398.749 257.51L399.612 258.015ZM393.892 263.57L394.366 264.45L394.371 264.448L393.892 263.57ZM390.482 258.895L390.008 258.014L389.998 258.02L390.482 258.895ZM393.947 255.43L393.079 254.934L393.079 254.934L393.947 255.43ZM394.002 244.265L393.125 244.745L393.13 244.754L394.002 244.265ZM381.627 240.8L381.143 239.925L381.134 239.93L381.627 240.8ZM378.382 244.265L379.263 244.738L379.268 244.729L378.382 244.265ZM379.647 257.41L378.911 258.086L378.918 258.094L378.925 258.102L379.647 257.41ZM385.972 264.495C383.268 264.495 380.852 263.89 378.703 262.696L377.732 264.444C380.202 265.817 382.957 266.495 385.972 266.495V264.495ZM378.713 262.702C376.562 261.473 374.876 259.771 373.644 257.58L371.901 258.56C373.308 261.063 375.252 263.027 377.721 264.438L378.713 262.702ZM373.647 257.586C372.42 255.371 371.792 252.792 371.792 249.82H369.792C369.792 253.081 370.484 256.003 371.897 258.554L373.647 257.586ZM371.792 249.82C371.792 246.892 372.436 244.334 373.696 242.12L371.958 241.13C370.505 243.682 369.792 246.588 369.792 249.82H371.792ZM373.696 242.12C374.964 239.893 376.682 238.194 378.862 237.002L377.902 235.248C375.389 236.622 373.404 238.59 371.958 241.13L373.696 242.12ZM378.862 237.002C381.049 235.806 383.504 235.2 386.247 235.2V233.2C383.197 233.2 380.408 233.877 377.902 235.248L378.862 237.002ZM386.247 235.2C388.99 235.2 391.445 235.806 393.632 237.002L394.592 235.248C392.086 233.877 389.297 233.2 386.247 233.2V235.2ZM393.632 237.002C395.812 238.194 397.531 239.893 398.798 242.12L400.536 241.13C399.09 238.59 397.106 236.622 394.592 235.248L393.632 237.002ZM398.798 242.12C400.059 244.334 400.702 246.892 400.702 249.82H402.702C402.702 246.588 401.989 243.682 400.536 241.13L398.798 242.12ZM400.702 249.82C400.702 252.744 400.043 255.297 398.749 257.51L400.475 258.52C401.968 255.966 402.702 253.056 402.702 249.82H400.702ZM398.749 257.51C397.447 259.737 395.673 261.459 393.413 262.692L394.371 264.448C396.951 263.041 398.99 261.06 400.475 258.52L398.749 257.51ZM393.418 262.69C391.191 263.889 388.715 264.495 385.972 264.495V266.495C389.022 266.495 391.827 265.818 394.366 264.45L393.418 262.69ZM385.972 261.05C387.752 261.05 389.422 260.623 390.966 259.77L389.998 258.02C388.755 258.707 387.419 259.05 385.972 259.05V261.05ZM390.956 259.775C392.566 258.909 393.851 257.613 394.815 255.926L393.079 254.934C392.283 256.327 391.258 257.341 390.008 258.015L390.956 259.775ZM394.815 255.926C395.8 254.203 396.267 252.153 396.267 249.82H394.267C394.267 251.887 393.854 253.577 393.079 254.934L394.815 255.926ZM396.267 249.82C396.267 247.495 395.822 245.464 394.874 243.776L393.13 244.754C393.869 246.072 394.267 247.745 394.267 249.82H396.267ZM394.879 243.785C393.955 242.096 392.707 240.796 391.131 239.925L390.163 241.675C391.374 242.344 392.363 243.354 393.125 244.745L394.879 243.785ZM391.131 239.925C389.587 239.072 387.917 238.645 386.137 238.645V240.645C387.584 240.645 388.92 240.988 390.163 241.675L391.131 239.925ZM386.137 238.645C384.357 238.645 382.687 239.072 381.143 239.925L382.111 241.675C383.354 240.988 384.691 240.645 386.137 240.645V238.645ZM381.134 239.93C379.591 240.806 378.382 242.111 377.496 243.801L379.268 244.729C379.996 243.339 380.95 242.334 382.121 241.67L381.134 239.93ZM377.501 243.792C376.597 245.477 376.172 247.501 376.172 249.82H378.172C378.172 247.739 378.554 246.06 379.263 244.738L377.501 243.792ZM376.172 249.82C376.172 253.248 377.041 256.05 378.911 258.086L380.384 256.734C378.954 255.176 378.172 252.919 378.172 249.82H376.172ZM378.925 258.102C380.808 260.067 383.181 261.05 385.972 261.05V259.05C383.703 259.05 381.859 258.273 380.369 256.718L378.925 258.102ZM450.965 235.685L450.497 236.569L450.505 236.572L450.965 235.685ZM455.42 240.085L454.543 240.565L454.547 240.571L454.55 240.578L455.42 240.085ZM457.07 265V266H458.07V265H457.07ZM450.855 265H449.855V266H450.855V265ZM448.82 241.845L448.086 242.524L448.095 242.533L448.82 241.845ZM437.655 241.845L436.93 241.156L436.93 241.157L437.655 241.845ZM435.62 265V266H436.62V265H435.62ZM429.405 265H428.405V266H429.405V265ZM427.37 241.845L426.636 242.524L426.645 242.533L427.37 241.845ZM416.205 241.845L415.48 241.156L415.48 241.157L416.205 241.845ZM414.17 265V266H415.17V265H414.17ZM407.9 265H406.9V266H407.9V265ZM407.9 234.695V233.695H406.9V234.695H407.9ZM414.17 234.695H415.17V233.695H414.17V234.695ZM414.17 238.16H413.17V240.947L414.942 238.796L414.17 238.16ZM418.075 235.245L418.48 236.16L418.48 236.16L418.075 235.245ZM429.625 235.74L430.099 234.86L430.099 234.86L429.625 235.74ZM434.025 240.195L433.141 240.662L434.05 242.382L434.92 240.642L434.025 240.195ZM438.315 235.85L438.795 236.727L438.802 236.724L438.808 236.72L438.315 235.85ZM444.585 235.2C446.827 235.2 448.789 235.664 450.498 236.569L451.433 234.801C449.402 233.726 447.111 233.2 444.585 233.2V235.2ZM450.505 236.572C452.229 237.468 453.572 238.79 454.543 240.565L456.298 239.605C455.142 237.493 453.515 235.882 451.426 234.798L450.505 236.572ZM454.55 240.578C455.548 242.34 456.07 244.508 456.07 247.125H458.07C458.07 244.242 457.493 241.717 456.291 239.592L454.55 240.578ZM456.07 247.125V265H458.07V247.125H456.07ZM457.07 264H450.855V266H457.07V264ZM451.855 265V248.06H449.855V265H451.855ZM451.855 248.06C451.855 245.188 451.136 242.833 449.546 241.157L448.095 242.533C449.218 243.717 449.855 245.505 449.855 248.06H451.855ZM449.554 241.166C447.975 239.459 445.838 238.645 443.265 238.645V240.645C445.386 240.645 446.952 241.298 448.086 242.524L449.554 241.166ZM443.265 238.645C440.692 238.645 438.543 239.459 436.93 241.156L438.38 242.534C439.554 241.298 441.145 240.645 443.265 240.645V238.645ZM436.93 241.157C435.34 242.833 434.62 245.188 434.62 248.06H436.62C436.62 245.505 437.258 243.717 438.381 242.533L436.93 241.157ZM434.62 248.06V265H436.62V248.06H434.62ZM435.62 264H429.405V266H435.62V264ZM430.405 265V248.06H428.405V265H430.405ZM430.405 248.06C430.405 245.188 429.686 242.833 428.096 241.157L426.645 242.533C427.768 243.717 428.405 245.505 428.405 248.06H430.405ZM428.104 241.166C426.525 239.459 424.388 238.645 421.815 238.645V240.645C423.936 240.645 425.502 241.298 426.636 242.524L428.104 241.166ZM421.815 238.645C419.242 238.645 417.093 239.459 415.48 241.156L416.93 242.534C418.104 241.298 419.695 240.645 421.815 240.645V238.645ZM415.48 241.157C413.89 242.833 413.17 245.188 413.17 248.06H415.17C415.17 245.505 415.808 243.717 416.931 242.533L415.48 241.157ZM413.17 248.06V265H415.17V248.06H413.17ZM414.17 264H407.9V266H414.17V264ZM408.9 265V234.695H406.9V265H408.9ZM407.9 235.695H414.17V233.695H407.9V235.695ZM413.17 234.695V238.16H415.17V234.695H413.17ZM414.942 238.796C415.863 237.677 417.036 236.798 418.48 236.16L417.671 234.33C415.962 235.086 414.531 236.149 413.398 237.524L414.942 238.796ZM418.48 236.16C419.924 235.522 421.472 235.2 423.135 235.2V233.2C421.206 233.2 419.381 233.575 417.671 234.33L418.48 236.16ZM423.135 235.2C425.41 235.2 427.407 235.681 429.151 236.62L430.099 234.86C428.031 233.746 425.701 233.2 423.135 233.2V235.2ZM429.151 236.62C430.881 237.552 432.206 238.891 433.141 240.662L434.91 239.728C433.792 237.612 432.184 235.982 430.099 234.86L429.151 236.62ZM434.92 240.642C435.738 239.006 437.016 237.701 438.795 236.727L437.835 234.973C435.728 236.126 434.146 237.717 433.131 239.748L434.92 240.642ZM438.808 236.72C440.601 235.705 442.521 235.2 444.585 235.2V233.2C442.176 233.2 439.917 233.795 437.823 234.98L438.808 236.72Z" fill="#9F57AB" mask="url(#path-1-outside-1_0_1)"/>
<path d="M169.547 275.063C171.259 277.995 172.114 279.461 171.988 280.665C171.877 281.714 171.323 282.668 170.463 283.288C169.476 284 167.769 284 164.353 284H102.647C99.2314 284 97.5236 284 96.5372 283.288C95.6769 282.668 95.1226 281.714 95.0122 280.665C94.8858 279.461 95.7414 277.995 97.4527 275.063L128.306 222.195C130.011 219.273 130.864 217.812 131.976 217.321C132.946 216.893 134.054 216.893 135.024 217.321C136.136 217.812 136.989 219.273 138.694 222.194" stroke="#9F57AB" stroke-width="4" stroke-linecap="round" stroke-linejoin="round"/>
<path d="M143.035 235.976L142.983 236.002L142.424 234.869C141.651 233.306 142.171 231.472 143.586 230.772C145 230.073 146.774 230.774 147.547 232.337L148.106 233.47L148.054 233.495M146.664 237.001L147.224 238.133M150.53 235.794C151.612 237.983 150.883 240.551 148.903 241.53C146.923 242.509 144.44 241.528 143.358 239.339C142.276 237.15 143.005 234.582 144.985 233.603C146.966 232.625 149.448 233.605 150.53 235.794Z" stroke="#9F57AB" stroke-linecap="round" stroke-linejoin="round"/>
<path d="M149.681 249.423L149.629 249.449L149.07 248.317C148.297 246.753 148.817 244.919 150.232 244.22C151.646 243.52 153.42 244.221 154.192 245.785L154.752 246.917L154.7 246.943M153.31 250.448L153.87 251.58M157.176 249.242C158.258 251.43 157.529 253.998 155.549 254.977C153.569 255.956 151.086 254.975 150.004 252.786C148.922 250.597 149.651 248.029 151.631 247.051C153.612 246.072 156.094 247.053 157.176 249.242Z" stroke="#9F57AB" stroke-linecap="round" stroke-linejoin="round"/>
<path d="M156.328 262.87L156.276 262.896L155.716 261.764C154.943 260.2 155.464 258.366 156.878 257.667C158.293 256.968 160.066 257.668 160.839 259.232L161.399 260.364L161.347 260.39M159.957 263.895L160.516 265.027M163.822 262.689C164.904 264.878 164.176 267.446 162.196 268.424C160.215 269.403 157.733 268.422 156.651 266.233C155.569 264.045 156.297 261.477 158.278 260.498C160.258 259.519 162.741 260.5 163.822 262.689Z" stroke="#9F57AB" stroke-linecap="round" stroke-linejoin="round"/>
<g clip-path="url(#clip0_0_1)">
<path d="M124 256.565C124 255.991 124 255.704 124.074 255.439C124.14 255.205 124.247 254.984 124.392 254.789C124.555 254.568 124.782 254.392 125.235 254.039L132.018 248.764C132.369 248.491 132.545 248.354 132.739 248.302C132.91 248.255 133.09 248.255 133.261 248.302C133.455 248.354 133.631 248.491 133.982 248.764L140.765 254.039C141.218 254.392 141.445 254.568 141.608 254.789C141.753 254.984 141.86 255.205 141.926 255.439C142 255.704 142 255.991 142 256.565V263.8C142 264.92 142 265.48 141.782 265.908C141.59 266.284 141.284 266.59 140.908 266.782C140.48 267 139.92 267 138.8 267H127.2C126.08 267 125.52 267 125.092 266.782C124.716 266.59 124.41 266.284 124.218 265.908C124 265.48 124 264.92 124 263.8V256.565Z" stroke="#9F57AB" stroke-width="2" stroke-linecap="round" stroke-linejoin="round"/>
<path d="M135.84 256.42L136.74 258.02L134 259.04L136.74 260.06L135.82 261.7L133.54 259.9L133.96 262.8H132.12L132.5 259.9L130.22 261.74L129.26 260.04L131.98 259.02L129.26 258.04L130.18 256.4L132.52 258.2L132.12 255.28H133.98L133.54 258.2L135.84 256.42Z" fill="#9F57AB"/>
</g>
<rect x="121.5" y="246.5" width="23" height="23" stroke="#9F57AB"/>
<defs>
<clipPath id="clip0_0_1">
<rect x="121" y="246" width="24" height="24" fill="white"/>
</clipPath>
</defs>
</svg>
